<svg xmlns="http://www.w3.org/2000/svg" width="1200" height="800" viewBox="0 0 1200 800">
<rect width="100%" height="100%" fill="#ffffff"/>
<text x="90" y="38" font-family="Arial, sans-serif" font-size="24" font-weight="bold" fill="#111827">ProyecciÃ³n t-SNE â TRAIN + VALIDATION</text>
<text x="90" y="64" font-family="Arial, sans-serif" font-size="14" fill="#4b5563">Semilla: 42 Â· Perplexity: 30 Â· Iteraciones: 750 Â· Muestras: 288</text>
<rect x="90" y="85" width="850" height="635" fill="#f9fafb" stroke="#d1d5db"/>
<circle cx="757.743" cy="367.493" r="4.2" fill="#dc2626" fill-opacity="0.72" stroke="#ffffff" stroke-width="0.6"/>
<circle cx="625.076" cy="382.662" r="4.2" fill="#dc2626" fill-opacity="0.72" stroke="#ffffff" stroke-width="0.6"/>
<circle cx="737.488" cy="431.047" r="4.2" fill="#2563eb" fill-opacity="0.72" stroke="#ffffff" stroke-width="0.6"/>
<circle cx="467.686" cy="421.032" r="4.2" fill="#2563eb" fill-opacity="0.72" stroke="#ffffff" stroke-width="0.6"/>
<circle cx="671.668" cy="514.566" r="4.2" fill="#dc2626" fill-opacity="0.72" stroke="#ffffff" stroke-width="0.6"/>
<circle cx="784.916" cy="379.389" r="4.2" fill="#2563eb" fill-opacity="0.72" stroke="#ffffff" stroke-width="0.6"/>
<circle cx="736.905" cy="360.143" r="4.2" fill="#2563eb" fill-opacity="0.72" stroke="#ffffff" stroke-width="0.6"/>
<circle cx="537.875" cy="395.697" r="4.2" fill="#2563eb" fill-opacity="0.72" stroke="#ffffff" stroke-width="0.6"/>
<circle cx="482.775" cy="443.853" r="4.2" fill="#dc2626" fill-opacity="0.72" stroke="#ffffff" stroke-width="0.6"/>
<circle cx="712.782" cy="348.958" r="4.2" fill="#f59e0b" fill-opacity="0.72" stroke="#ffffff" stroke-width="0.6"/>
<circle cx="601.452" cy="371.746" r="4.2" fill="#f59e0b" fill-opacity="0.72" stroke="#ffffff" stroke-width="0.6"/>
<circle cx="611.464" cy="335.799" r="4.2" fill="#2563eb" fill-opacity="0.72" stroke="#ffffff" stroke-width="0.6"/>
<circle cx="645.283" cy="390.690" r="4.2" fill="#dc2626" fill-opacity="0.72" stroke="#ffffff" stroke-width="0.6"/>
<circle cx="731.092" cy="350.610" r="4.2" fill="#dc2626" fill-opacity="0.72" stroke="#ffffff" stroke-width="0.6"/>
<circle cx="825.340" cy="305.646" r="4.2" fill="#2563eb" fill-opacity="0.72" stroke="#ffffff" stroke-width="0.6"/>
<circle cx="626.119" cy="401.797" r="4.2" fill="#2563eb" fill-opacity="0.72" stroke="#ffffff" stroke-width="0.6"/>
<circle cx="692.116" cy="389.169" r="4.2" fill="#dc2626" fill-opacity="0.72" stroke="#ffffff" stroke-width="0.6"/>
<circle cx="653.226" cy="299.719" r="4.2" fill="#dc2626" fill-opacity="0.72" stroke="#ffffff" stroke-width="0.6"/>
<circle cx="596.475" cy="312.296" r="4.2" fill="#f59e0b" fill-opacity="0.72" stroke="#ffffff" stroke-width="0.6"/>
<circle cx="598.426" cy="503.154" r="4.2" fill="#dc2626" fill-opacity="0.72" stroke="#ffffff" stroke-width="0.6"/>
<circle cx="581.139" cy="447.221" r="4.2" fill="#2563eb" fill-opacity="0.72" stroke="#ffffff" stroke-width="0.6"/>
<circle cx="653.904" cy="405.746" r="4.2" fill="#2563eb" fill-opacity="0.72" stroke="#ffffff" stroke-width="0.6"/>
<circle cx="699.836" cy="411.672" r="4.2" fill="#2563eb" fill-opacity="0.72" stroke="#ffffff" stroke-width="0.6"/>
<circle cx="691.814" cy="427.231" r="4.2" fill="#dc2626" fill-opacity="0.72" stroke="#ffffff" stroke-width="0.6"/>
<circle cx="684.537" cy="378.123" r="4.2" fill="#dc2626" fill-opacity="0.72" stroke="#ffffff" stroke-width="0.6"/>
<circle cx="904.642" cy="372.333" r="4.2" fill="#f59e0b" fill-opacity="0.72" stroke="#ffffff" stroke-width="0.6"/>
<circle cx="665.018" cy="392.000" r="4.2" fill="#2563eb" fill-opacity="0.72" stroke="#ffffff" stroke-width="0.6"/>
<circle cx="625.888" cy="331.881" r="4.2" fill="#f59e0b" fill-opacity="0.72" stroke="#ffffff" stroke-width="0.6"/>
<circle cx="683.548" cy="274.368" r="4.2" fill="#2563eb" fill-opacity="0.72" stroke="#ffffff" stroke-width="0.6"/>
<circle cx="595.563" cy="444.721" r="4.2" fill="#2563eb" fill-opacity="0.72" stroke="#ffffff" stroke-width="0.6"/>
<circle cx="435.932" cy="359.332" r="4.2" fill="#dc2626" fill-opacity="0.72" stroke="#ffffff" stroke-width="0.6"/>
<circle cx="675.833" cy="287.666" r="4.2" fill="#dc2626" fill-opacity="0.72" stroke="#ffffff" stroke-width="0.6"/>
<circle cx="691.504" cy="400.854" r="4.2" fill="#2563eb" fill-opacity="0.72" stroke="#ffffff" stroke-width="0.6"/>
<circle cx="586.063" cy="490.884" r="4.2" fill="#dc2626" fill-opacity="0.72" stroke="#ffffff" stroke-width="0.6"/>
<circle cx="637.066" cy="440.376" r="4.2" fill="#dc2626" fill-opacity="0.72" stroke="#ffffff" stroke-width="0.6"/>
<circle cx="333.886" cy="435.638" r="4.2" fill="#dc2626" fill-opacity="0.72" stroke="#ffffff" stroke-width="0.6"/>
<circle cx="654.506" cy="467.462" r="4.2" fill="#dc2626" fill-opacity="0.72" stroke="#ffffff" stroke-width="0.6"/>
<circle cx="598.782" cy="586.605" r="4.2" fill="#dc2626" fill-opacity="0.72" stroke="#ffffff" stroke-width="0.6"/>
<circle cx="628.924" cy="201.612" r="4.2" fill="#f59e0b" fill-opacity="0.72" stroke="#ffffff" stroke-width="0.6"/>
<circle cx="663.025" cy="232.742" r="4.2" fill="#dc2626" fill-opacity="0.72" stroke="#ffffff" stroke-width="0.6"/>
<circle cx="638.195" cy="390.550" r="4.2" fill="#dc2626" fill-opacity="0.72" stroke="#ffffff" stroke-width="0.6"/>
<circle cx="609.672" cy="319.890" r="4.2" fill="#2563eb" fill-opacity="0.72" stroke="#ffffff" stroke-width="0.6"/>
<circle cx="626.625" cy="358.350" r="4.2" fill="#dc2626" fill-opacity="0.72" stroke="#ffffff" stroke-width="0.6"/>
<circle cx="732.524" cy="376.714" r="4.2" fill="#dc2626" fill-opacity="0.72" stroke="#ffffff" stroke-width="0.6"/>
<circle cx="806.758" cy="375.866" r="4.2" fill="#2563eb" fill-opacity="0.72" stroke="#ffffff" stroke-width="0.6"/>
<circle cx="632.365" cy="373.779" r="4.2" fill="#f59e0b" fill-opacity="0.72" stroke="#ffffff" stroke-width="0.6"/>
<circle cx="506.697" cy="376.210" r="4.2" fill="#2563eb" fill-opacity="0.72" stroke="#ffffff" stroke-width="0.6"/>
<circle cx="473.446" cy="370.305" r="4.2" fill="#2563eb" fill-opacity="0.72" stroke="#ffffff" stroke-width="0.6"/>
<circle cx="797.214" cy="368.294" r="4.2" fill="#2563eb" fill-opacity="0.72" stroke="#ffffff" stroke-width="0.6"/>
<circle cx="647.730" cy="292.277" r="4.2" fill="#dc2626" fill-opacity="0.72" stroke="#ffffff" stroke-width="0.6"/>
<circle cx="613.307" cy="359.402" r="4.2" fill="#2563eb" fill-opacity="0.72" stroke="#ffffff" stroke-width="0.6"/>
<circle cx="722.997" cy="386.112" r="4.2" fill="#dc2626" fill-opacity="0.72" stroke="#ffffff" stroke-width="0.6"/>
<circle cx="683.006" cy="195.632" r="4.2" fill="#dc2626" fill-opacity="0.72" stroke="#ffffff" stroke-width="0.6"/>
<circle cx="325.180" cy="372.416" r="4.2" fill="#2563eb" fill-opacity="0.72" stroke="#ffffff" stroke-width="0.6"/>
<circle cx="715.559" cy="579.676" r="4.2" fill="#f59e0b" fill-opacity="0.72" stroke="#ffffff" stroke-width="0.6"/>
<circle cx="652.489" cy="424.228" r="4.2" fill="#dc2626" fill-opacity="0.72" stroke="#ffffff" stroke-width="0.6"/>
<circle cx="598.584" cy="515.867" r="4.2" fill="#f59e0b" fill-opacity="0.72" stroke="#ffffff" stroke-width="0.6"/>
<circle cx="620.499" cy="155.717" r="4.2" fill="#dc2626" fill-opacity="0.72" stroke="#ffffff" stroke-width="0.6"/>
<circle cx="854.950" cy="389.852" r="4.2" fill="#2563eb" fill-opacity="0.72" stroke="#ffffff" stroke-width="0.6"/>
<circle cx="629.370" cy="343.094" r="4.2" fill="#dc2626" fill-opacity="0.72" stroke="#ffffff" stroke-width="0.6"/>
<circle cx="690.590" cy="459.419" r="4.2" fill="#dc2626" fill-opacity="0.72" stroke="#ffffff" stroke-width="0.6"/>
<circle cx="799.520" cy="220.378" r="4.2" fill="#dc2626" fill-opacity="0.72" stroke="#ffffff" stroke-width="0.6"/>
<circle cx="641.692" cy="363.539" r="4.2" fill="#f59e0b" fill-opacity="0.72" stroke="#ffffff" stroke-width="0.6"/>
<circle cx="650.475" cy="350.562" r="4.2" fill="#f59e0b" fill-opacity="0.72" stroke="#ffffff" stroke-width="0.6"/>
<circle cx="619.099" cy="494.814" r="4.2" fill="#f59e0b" fill-opacity="0.72" stroke="#ffffff" stroke-width="0.6"/>
<circle cx="599.121" cy="474.673" r="4.2" fill="#dc2626" fill-opacity="0.72" stroke="#ffffff" stroke-width="0.6"/>
<circle cx="614.753" cy="305.959" r="4.2" fill="#dc2626" fill-opacity="0.72" stroke="#ffffff" stroke-width="0.6"/>
<circle cx="645.327" cy="337.144" r="4.2" fill="#f59e0b" fill-opacity="0.72" stroke="#ffffff" stroke-width="0.6"/>
<circle cx="664.064" cy="377.107" r="4.2" fill="#f59e0b" fill-opacity="0.72" stroke="#ffffff" stroke-width="0.6"/>
<circle cx="90.000" cy="336.130" r="4.2" fill="#2563eb" fill-opacity="0.72" stroke="#ffffff" stroke-width="0.6"/>
<circle cx="707.786" cy="434.441" r="4.2" fill="#2563eb" fill-opacity="0.72" stroke="#ffffff" stroke-width="0.6"/>
<circle cx="600.202" cy="408.455" r="4.2" fill="#2563eb" fill-opacity="0.72" stroke="#ffffff" stroke-width="0.6"/>
<circle cx="383.363" cy="383.693" r="4.2" fill="#2563eb" fill-opacity="0.72" stroke="#ffffff" stroke-width="0.6"/>
<circle cx="669.119" cy="456.130" r="4.2" fill="#f59e0b" fill-opacity="0.72" stroke="#ffffff" stroke-width="0.6"/>
<circle cx="696.690" cy="303.854" r="4.2" fill="#dc2626" fill-opacity="0.72" stroke="#ffffff" stroke-width="0.6"/>
<circle cx="673.218" cy="408.615" r="4.2" fill="#dc2626" fill-opacity="0.72" stroke="#ffffff" stroke-width="0.6"/>
<circle cx="538.171" cy="352.192" r="4.2" fill="#dc2626" fill-opacity="0.72" stroke="#ffffff" stroke-width="0.6"/>
<circle cx="478.965" cy="383.394" r="4.2" fill="#2563eb" fill-opacity="0.72" stroke="#ffffff" stroke-width="0.6"/>
<circle cx="519.220" cy="455.484" r="4.2" fill="#2563eb" fill-opacity="0.72" stroke="#ffffff" stroke-width="0.6"/>
<circle cx="732.120" cy="405.833" r="4.2" fill="#dc2626" fill-opacity="0.72" stroke="#ffffff" stroke-width="0.6"/>
<circle cx="606.739" cy="432.307" r="4.2" fill="#2563eb" fill-opacity="0.72" stroke="#ffffff" stroke-width="0.6"/>
<circle cx="621.793" cy="547.953" r="4.2" fill="#dc2626" fill-opacity="0.72" stroke="#ffffff" stroke-width="0.6"/>
<circle cx="482.054" cy="467.397" r="4.2" fill="#2563eb" fill-opacity="0.72" stroke="#ffffff" stroke-width="0.6"/>
<circle cx="654.768" cy="371.147" r="4.2" fill="#f59e0b" fill-opacity="0.72" stroke="#ffffff" stroke-width="0.6"/>
<circle cx="662.438" cy="268.060" r="4.2" fill="#2563eb" fill-opacity="0.72" stroke="#ffffff" stroke-width="0.6"/>
<circle cx="570.163" cy="575.545" r="4.2" fill="#dc2626" fill-opacity="0.72" stroke="#ffffff" stroke-width="0.6"/>
<circle cx="748.028" cy="394.681" r="4.2" fill="#dc2626" fill-opacity="0.72" stroke="#ffffff" stroke-width="0.6"/>
<circle cx="808.738" cy="388.713" r="4.2" fill="#dc2626" fill-opacity="0.72" stroke="#ffffff" stroke-width="0.6"/>
<circle cx="644.995" cy="249.851" r="4.2" fill="#dc2626" fill-opacity="0.72" stroke="#ffffff" stroke-width="0.6"/>
<circle cx="940.000" cy="276.878" r="4.2" fill="#2563eb" fill-opacity="0.72" stroke="#ffffff" stroke-width="0.6"/>
<circle cx="709.873" cy="367.025" r="4.2" fill="#dc2626" fill-opacity="0.72" stroke="#ffffff" stroke-width="0.6"/>
<circle cx="593.402" cy="390.863" r="4.2" fill="#dc2626" fill-opacity="0.72" stroke="#ffffff" stroke-width="0.6"/>
<circle cx="611.546" cy="377.993" r="4.2" fill="#f59e0b" fill-opacity="0.72" stroke="#ffffff" stroke-width="0.6"/>
<circle cx="535.255" cy="459.416" r="4.2" fill="#dc2626" fill-opacity="0.72" stroke="#ffffff" stroke-width="0.6"/>
<circle cx="655.170" cy="371.998" r="4.2" fill="#dc2626" fill-opacity="0.72" stroke="#ffffff" stroke-width="0.6"/>
<circle cx="570.919" cy="388.071" r="4.2" fill="#f59e0b" fill-opacity="0.72" stroke="#ffffff" stroke-width="0.6"/>
<circle cx="578.904" cy="245.618" r="4.2" fill="#dc2626" fill-opacity="0.72" stroke="#ffffff" stroke-width="0.6"/>
<circle cx="637.885" cy="218.898" r="4.2" fill="#dc2626" fill-opacity="0.72" stroke="#ffffff" stroke-width="0.6"/>
<circle cx="570.317" cy="299.788" r="4.2" fill="#dc2626" fill-opacity="0.72" stroke="#ffffff" stroke-width="0.6"/>
<circle cx="611.238" cy="394.740" r="4.2" fill="#f59e0b" fill-opacity="0.72" stroke="#ffffff" stroke-width="0.6"/>
<circle cx="602.345" cy="227.560" r="4.2" fill="#dc2626" fill-opacity="0.72" stroke="#ffffff" stroke-width="0.6"/>
<circle cx="672.895" cy="362.441" r="4.2" fill="#dc2626" fill-opacity="0.72" stroke="#ffffff" stroke-width="0.6"/>
<circle cx="586.243" cy="377.946" r="4.2" fill="#dc2626" fill-opacity="0.72" stroke="#ffffff" stroke-width="0.6"/>
<circle cx="657.479" cy="361.368" r="4.2" fill="#f59e0b" fill-opacity="0.72" stroke="#ffffff" stroke-width="0.6"/>
<circle cx="624.011" cy="232.968" r="4.2" fill="#dc2626" fill-opacity="0.72" stroke="#ffffff" stroke-width="0.6"/>
<circle cx="720.201" cy="466.751" r="4.2" fill="#dc2626" fill-opacity="0.72" stroke="#ffffff" stroke-width="0.6"/>
<circle cx="620.627" cy="439.381" r="4.2" fill="#f59e0b" fill-opacity="0.72" stroke="#ffffff" stroke-width="0.6"/>
<circle cx="764.672" cy="323.908" r="4.2" fill="#2563eb" fill-opacity="0.72" stroke="#ffffff" stroke-width="0.6"/>
<circle cx="378.338" cy="85.000" r="4.2" fill="#2563eb" fill-opacity="0.72" stroke="#ffffff" stroke-width="0.6"/>
<circle cx="781.663" cy="262.029" r="4.2" fill="#2563eb" fill-opacity="0.72" stroke="#ffffff" stroke-width="0.6"/>
<circle cx="649.280" cy="434.878" r="4.2" fill="#f59e0b" fill-opacity="0.72" stroke="#ffffff" stroke-width="0.6"/>
<circle cx="697.470" cy="360.407" r="4.2" fill="#2563eb" fill-opacity="0.72" stroke="#ffffff" stroke-width="0.6"/>
<circle cx="452.435" cy="397.189" r="4.2" fill="#dc2626" fill-opacity="0.72" stroke="#ffffff" stroke-width="0.6"/>
<circle cx="623.931" cy="470.973" r="4.2" fill="#2563eb" fill-opacity="0.72" stroke="#ffffff" stroke-width="0.6"/>
<circle cx="716.986" cy="452.998" r="4.2" fill="#2563eb" fill-opacity="0.72" stroke="#ffffff" stroke-width="0.6"/>
<circle cx="617.893" cy="565.653" r="4.2" fill="#dc2626" fill-opacity="0.72" stroke="#ffffff" stroke-width="0.6"/>
<circle cx="497.389" cy="425.309" r="4.2" fill="#dc2626" fill-opacity="0.72" stroke="#ffffff" stroke-width="0.6"/>
<circle cx="724.835" cy="313.913" r="4.2" fill="#dc2626" fill-opacity="0.72" stroke="#ffffff" stroke-width="0.6"/>
<circle cx="538.053" cy="421.453" r="4.2" fill="#2563eb" fill-opacity="0.72" stroke="#ffffff" stroke-width="0.6"/>
<circle cx="828.993" cy="369.876" r="4.2" fill="#dc2626" fill-opacity="0.72" stroke="#ffffff" stroke-width="0.6"/>
<circle cx="424.620" cy="390.881" r="4.2" fill="#2563eb" fill-opacity="0.72" stroke="#ffffff" stroke-width="0.6"/>
<circle cx="624.110" cy="295.792" r="4.2" fill="#f59e0b" fill-opacity="0.72" stroke="#ffffff" stroke-width="0.6"/>
<circle cx="636.816" cy="482.786" r="4.2" fill="#f59e0b" fill-opacity="0.72" stroke="#ffffff" stroke-width="0.6"/>
<circle cx="576.365" cy="400.198" r="4.2" fill="#2563eb" fill-opacity="0.72" stroke="#ffffff" stroke-width="0.6"/>
<circle cx="437.990" cy="339.699" r="4.2" fill="#2563eb" fill-opacity="0.72" stroke="#ffffff" stroke-width="0.6"/>
<circle cx="659.266" cy="315.458" r="4.2" fill="#dc2626" fill-opacity="0.72" stroke="#ffffff" stroke-width="0.6"/>
<circle cx="535.489" cy="246.337" r="4.2" fill="#2563eb" fill-opacity="0.72" stroke="#ffffff" stroke-width="0.6"/>
<circle cx="548.805" cy="433.060" r="4.2" fill="#dc2626" fill-opacity="0.72" stroke="#ffffff" stroke-width="0.6"/>
<circle cx="690.927" cy="339.277" r="4.2" fill="#dc2626" fill-opacity="0.72" stroke="#ffffff" stroke-width="0.6"/>
<circle cx="563.781" cy="369.367" r="4.2" fill="#2563eb" fill-opacity="0.72" stroke="#ffffff" stroke-width="0.6"/>
<circle cx="722.597" cy="282.894" r="4.2" fill="#2563eb" fill-opacity="0.72" stroke="#ffffff" stroke-width="0.6"/>
<circle cx="516.634" cy="364.404" r="4.2" fill="#dc2626" fill-opacity="0.72" stroke="#ffffff" stroke-width="0.6"/>
<circle cx="588.769" cy="256.999" r="4.2" fill="#f59e0b" fill-opacity="0.72" stroke="#ffffff" stroke-width="0.6"/>
<circle cx="478.402" cy="337.299" r="4.2" fill="#2563eb" fill-opacity="0.72" stroke="#ffffff" stroke-width="0.6"/>
<circle cx="494.416" cy="354.613" r="4.2" fill="#dc2626" fill-opacity="0.72" stroke="#ffffff" stroke-width="0.6"/>
<circle cx="402.396" cy="403.133" r="4.2" fill="#2563eb" fill-opacity="0.72" stroke="#ffffff" stroke-width="0.6"/>
<circle cx="543.035" cy="720.000" r="4.2" fill="#2563eb" fill-opacity="0.72" stroke="#ffffff" stroke-width="0.6"/>
<circle cx="634.916" cy="304.772" r="4.2" fill="#f59e0b" fill-opacity="0.72" stroke="#ffffff" stroke-width="0.6"/>
<circle cx="525.145" cy="334.684" r="4.2" fill="#dc2626" fill-opacity="0.72" stroke="#ffffff" stroke-width="0.6"/>
<circle cx="429.604" cy="196.933" r="4.2" fill="#2563eb" fill-opacity="0.72" stroke="#ffffff" stroke-width="0.6"/>
<circle cx="473.212" cy="265.778" r="4.2" fill="#f59e0b" fill-opacity="0.72" stroke="#ffffff" stroke-width="0.6"/>
<circle cx="526.817" cy="195.822" r="4.2" fill="#f59e0b" fill-opacity="0.72" stroke="#ffffff" stroke-width="0.6"/>
<circle cx="779.624" cy="403.384" r="4.2" fill="#dc2626" fill-opacity="0.72" stroke="#ffffff" stroke-width="0.6"/>
<circle cx="538.506" cy="304.441" r="4.2" fill="#2563eb" fill-opacity="0.72" stroke="#ffffff" stroke-width="0.6"/>
<circle cx="817.514" cy="324.968" r="4.2" fill="#dc2626" fill-opacity="0.72" stroke="#ffffff" stroke-width="0.6"/>
<circle cx="508.260" cy="268.984" r="4.2" fill="#f59e0b" fill-opacity="0.72" stroke="#ffffff" stroke-width="0.6"/>
<circle cx="495.678" cy="485.484" r="4.2" fill="#dc2626" fill-opacity="0.72" stroke="#ffffff" stroke-width="0.6"/>
<circle cx="547.127" cy="272.356" r="4.2" fill="#f59e0b" fill-opacity="0.72" stroke="#ffffff" stroke-width="0.6"/>
<circle cx="521.298" cy="393.144" r="4.2" fill="#2563eb" fill-opacity="0.72" stroke="#ffffff" stroke-width="0.6"/>
<circle cx="743.555" cy="329.560" r="4.2" fill="#dc2626" fill-opacity="0.72" stroke="#ffffff" stroke-width="0.6"/>
<circle cx="811.448" cy="435.856" r="4.2" fill="#f59e0b" fill-opacity="0.72" stroke="#ffffff" stroke-width="0.6"/>
<circle cx="510.860" cy="436.954" r="4.2" fill="#f59e0b" fill-opacity="0.72" stroke="#ffffff" stroke-width="0.6"/>
<circle cx="745.875" cy="305.481" r="4.2" fill="#f59e0b" fill-opacity="0.72" stroke="#ffffff" stroke-width="0.6"/>
<circle cx="654.782" cy="328.314" r="4.2" fill="#f59e0b" fill-opacity="0.72" stroke="#ffffff" stroke-width="0.6"/>
<circle cx="474.270" cy="298.334" r="4.2" fill="#2563eb" fill-opacity="0.72" stroke="#ffffff" stroke-width="0.6"/>
<circle cx="517.543" cy="318.466" r="4.2" fill="#2563eb" fill-opacity="0.72" stroke="#ffffff" stroke-width="0.6"/>
<circle cx="500.001" cy="315.753" r="4.2" fill="#2563eb" fill-opacity="0.72" stroke="#ffffff" stroke-width="0.6"/>
<circle cx="739.251" cy="269.035" r="4.2" fill="#2563eb" fill-opacity="0.72" stroke="#ffffff" stroke-width="0.6"/>
<circle cx="601.053" cy="245.867" r="4.2" fill="#2563eb" fill-opacity="0.72" stroke="#ffffff" stroke-width="0.6"/>
<circle cx="523.196" cy="151.142" r="4.2" fill="#f59e0b" fill-opacity="0.72" stroke="#ffffff" stroke-width="0.6"/>
<circle cx="627.467" cy="181.482" r="4.2" fill="#dc2626" fill-opacity="0.72" stroke="#ffffff" stroke-width="0.6"/>
<circle cx="664.970" cy="212.440" r="4.2" fill="#f59e0b" fill-opacity="0.72" stroke="#ffffff" stroke-width="0.6"/>
<circle cx="489.661" cy="149.257" r="4.2" fill="#2563eb" fill-opacity="0.72" stroke="#ffffff" stroke-width="0.6"/>
<circle cx="353.967" cy="379.361" r="4.2" fill="#2563eb" fill-opacity="0.72" stroke="#ffffff" stroke-width="0.6"/>
<circle cx="379.157" cy="359.853" r="4.2" fill="#dc2626" fill-opacity="0.72" stroke="#ffffff" stroke-width="0.6"/>
<circle cx="627.287" cy="455.897" r="4.2" fill="#2563eb" fill-opacity="0.72" stroke="#ffffff" stroke-width="0.6"/>
<circle cx="674.190" cy="422.460" r="4.2" fill="#2563eb" fill-opacity="0.72" stroke="#ffffff" stroke-width="0.6"/>
<circle cx="774.942" cy="298.623" r="4.2" fill="#dc2626" fill-opacity="0.72" stroke="#ffffff" stroke-width="0.6"/>
<circle cx="508.984" cy="348.789" r="4.2" fill="#2563eb" fill-opacity="0.72" stroke="#ffffff" stroke-width="0.6"/>
<circle cx="672.417" cy="248.149" r="4.2" fill="#f59e0b" fill-opacity="0.72" stroke="#ffffff" stroke-width="0.6"/>
<circle cx="353.025" cy="291.575" r="4.2" fill="#dc2626" fill-opacity="0.72" stroke="#ffffff" stroke-width="0.6"/>
<circle cx="567.225" cy="473.983" r="4.2" fill="#dc2626" fill-opacity="0.72" stroke="#ffffff" stroke-width="0.6"/>
<circle cx="687.265" cy="495.194" r="4.2" fill="#f59e0b" fill-opacity="0.72" stroke="#ffffff" stroke-width="0.6"/>
<circle cx="813.073" cy="288.032" r="4.2" fill="#dc2626" fill-opacity="0.72" stroke="#ffffff" stroke-width="0.6"/>
<circle cx="548.729" cy="525.194" r="4.2" fill="#f59e0b" fill-opacity="0.72" stroke="#ffffff" stroke-width="0.6"/>
<circle cx="600.914" cy="458.231" r="4.2" fill="#dc2626" fill-opacity="0.72" stroke="#ffffff" stroke-width="0.6"/>
<circle cx="559.478" cy="412.425" r="4.2" fill="#2563eb" fill-opacity="0.72" stroke="#ffffff" stroke-width="0.6"/>
<circle cx="605.635" cy="286.007" r="4.2" fill="#f59e0b" fill-opacity="0.72" stroke="#ffffff" stroke-width="0.6"/>
<circle cx="573.038" cy="350.786" r="4.2" fill="#2563eb" fill-opacity="0.72" stroke="#ffffff" stroke-width="0.6"/>
<circle cx="446.904" cy="295.669" r="4.2" fill="#f59e0b" fill-opacity="0.72" stroke="#ffffff" stroke-width="0.6"/>
<circle cx="315.811" cy="389.132" r="4.2" fill="#f59e0b" fill-opacity="0.72" stroke="#ffffff" stroke-width="0.6"/>
<circle cx="595.476" cy="534.610" r="4.2" fill="#dc2626" fill-opacity="0.72" stroke="#ffffff" stroke-width="0.6"/>
<circle cx="570.531" cy="286.611" r="4.2" fill="#f59e0b" fill-opacity="0.72" stroke="#ffffff" stroke-width="0.6"/>
<circle cx="411.557" cy="352.559" r="4.2" fill="#2563eb" fill-opacity="0.72" stroke="#ffffff" stroke-width="0.6"/>
<circle cx="807.804" cy="408.629" r="4.2" fill="#dc2626" fill-opacity="0.72" stroke="#ffffff" stroke-width="0.6"/>
<circle cx="497.646" cy="389.876" r="4.2" fill="#dc2626" fill-opacity="0.72" stroke="#ffffff" stroke-width="0.6"/>
<circle cx="488.672" cy="406.848" r="4.2" fill="#dc2626" fill-opacity="0.72" stroke="#ffffff" stroke-width="0.6"/>
<circle cx="580.326" cy="415.370" r="4.2" fill="#2563eb" fill-opacity="0.72" stroke="#ffffff" stroke-width="0.6"/>
<circle cx="564.306" cy="169.645" r="4.2" fill="#dc2626" fill-opacity="0.72" stroke="#ffffff" stroke-width="0.6"/>
<circle cx="548.628" cy="388.637" r="4.2" fill="#dc2626" fill-opacity="0.72" stroke="#ffffff" stroke-width="0.6"/>
<circle cx="356.463" cy="411.418" r="4.2" fill="#dc2626" fill-opacity="0.72" stroke="#ffffff" stroke-width="0.6"/>
<circle cx="708.400" cy="380.755" r="4.2" fill="#2563eb" fill-opacity="0.72" stroke="#ffffff" stroke-width="0.6"/>
<circle cx="441.013" cy="322.604" r="4.2" fill="#2563eb" fill-opacity="0.72" stroke="#ffffff" stroke-width="0.6"/>
<circle cx="708.804" cy="252.852" r="4.2" fill="#2563eb" fill-opacity="0.72" stroke="#ffffff" stroke-width="0.6"/>
<circle cx="554.401" cy="358.365" r="4.2" fill="#dc2626" fill-opacity="0.72" stroke="#ffffff" stroke-width="0.6"/>
<circle cx="506.440" cy="341.362" r="4.2" fill="#dc2626" fill-opacity="0.72" stroke="#ffffff" stroke-width="0.6"/>
<circle cx="586.089" cy="329.337" r="4.2" fill="#dc2626" fill-opacity="0.72" stroke="#ffffff" stroke-width="0.6"/>
<circle cx="586.128" cy="329.193" r="4.2" fill="#dc2626" fill-opacity="0.72" stroke="#ffffff" stroke-width="0.6"/>
<circle cx="549.082" cy="334.188" r="4.2" fill="#2563eb" fill-opacity="0.72" stroke="#ffffff" stroke-width="0.6"/>
<circle cx="554.053" cy="446.339" r="4.2" fill="#dc2626" fill-opacity="0.72" stroke="#ffffff" stroke-width="0.6"/>
<circle cx="536.209" cy="369.478" r="4.2" fill="#f59e0b" fill-opacity="0.72" stroke="#ffffff" stroke-width="0.6"/>
<circle cx="617.758" cy="257.604" r="4.2" fill="#dc2626" fill-opacity="0.72" stroke="#ffffff" stroke-width="0.6"/>
<circle cx="823.152" cy="248.483" r="4.2" fill="#dc2626" fill-opacity="0.72" stroke="#ffffff" stroke-width="0.6"/>
<circle cx="495.797" cy="283.967" r="4.2" fill="#dc2626" fill-opacity="0.72" stroke="#ffffff" stroke-width="0.6"/>
<circle cx="750.476" cy="290.273" r="4.2" fill="#f59e0b" fill-opacity="0.72" stroke="#ffffff" stroke-width="0.6"/>
<circle cx="760.224" cy="342.254" r="4.2" fill="#dc2626" fill-opacity="0.72" stroke="#ffffff" stroke-width="0.6"/>
<circle cx="812.925" cy="345.787" r="4.2" fill="#2563eb" fill-opacity="0.72" stroke="#ffffff" stroke-width="0.6"/>
<circle cx="618.788" cy="273.744" r="4.2" fill="#2563eb" fill-opacity="0.72" stroke="#ffffff" stroke-width="0.6"/>
<circle cx="526.354" cy="221.431" r="4.2" fill="#2563eb" fill-opacity="0.72" stroke="#ffffff" stroke-width="0.6"/>
<circle cx="409.951" cy="329.222" r="4.2" fill="#f59e0b" fill-opacity="0.72" stroke="#ffffff" stroke-width="0.6"/>
<circle cx="539.394" cy="291.549" r="4.2" fill="#dc2626" fill-opacity="0.72" stroke="#ffffff" stroke-width="0.6"/>
<circle cx="571.404" cy="312.311" r="4.2" fill="#dc2626" fill-opacity="0.72" stroke="#ffffff" stroke-width="0.6"/>
<circle cx="512.652" cy="255.417" r="4.2" fill="#2563eb" fill-opacity="0.72" stroke="#ffffff" stroke-width="0.6"/>
<circle cx="519.630" cy="174.779" r="4.2" fill="#dc2626" fill-opacity="0.72" stroke="#ffffff" stroke-width="0.6"/>
<circle cx="594.633" cy="556.830" r="4.2" fill="#dc2626" fill-opacity="0.72" stroke="#ffffff" stroke-width="0.6"/>
<circle cx="641.543" cy="534.298" r="4.2" fill="#dc2626" fill-opacity="0.72" stroke="#ffffff" stroke-width="0.6"/>
<circle cx="560.867" cy="261.790" r="4.2" fill="#2563eb" fill-opacity="0.72" stroke="#ffffff" stroke-width="0.6"/>
<circle cx="550.234" cy="318.552" r="4.2" fill="#2563eb" fill-opacity="0.72" stroke="#ffffff" stroke-width="0.6"/>
<circle cx="537.653" cy="368.453" r="4.2" fill="#2563eb" fill-opacity="0.72" stroke="#ffffff" stroke-width="0.6"/>
<circle cx="470.107" cy="395.465" r="4.2" fill="#dc2626" fill-opacity="0.72" stroke="#ffffff" stroke-width="0.6"/>
<circle cx="547.361" cy="380.119" r="4.2" fill="#dc2626" fill-opacity="0.72" stroke="#ffffff" stroke-width="0.6"/>
<circle cx="727.271" cy="331.207" r="4.2" fill="#dc2626" fill-opacity="0.72" stroke="#ffffff" stroke-width="0.6"/>
<circle cx="530.473" cy="439.145" r="4.2" fill="#dc2626" fill-opacity="0.72" stroke="#ffffff" stroke-width="0.6"/>
<circle cx="743.294" cy="517.634" r="4.2" fill="#dc2626" fill-opacity="0.72" stroke="#ffffff" stroke-width="0.6"/>
<circle cx="767.041" cy="383.792" r="4.2" fill="#f59e0b" fill-opacity="0.72" stroke="#ffffff" stroke-width="0.6"/>
<circle cx="261.661" cy="425.042" r="4.2" fill="#dc2626" fill-opacity="0.72" stroke="#ffffff" stroke-width="0.6"/>
<circle cx="448.614" cy="504.314" r="4.2" fill="#f59e0b" fill-opacity="0.72" stroke="#ffffff" stroke-width="0.6"/>
<circle cx="755.911" cy="237.817" r="4.2" fill="#2563eb" fill-opacity="0.72" stroke="#ffffff" stroke-width="0.6"/>
<circle cx="576.955" cy="614.736" r="4.2" fill="#dc2626" fill-opacity="0.72" stroke="#ffffff" stroke-width="0.6"/>
<circle cx="706.218" cy="325.518" r="4.2" fill="#2563eb" fill-opacity="0.72" stroke="#ffffff" stroke-width="0.6"/>
<circle cx="679.791" cy="351.310" r="4.2" fill="#dc2626" fill-opacity="0.72" stroke="#ffffff" stroke-width="0.6"/>
<circle cx="601.308" cy="200.623" r="4.2" fill="#2563eb" fill-opacity="0.72" stroke="#ffffff" stroke-width="0.6"/>
<circle cx="482.403" cy="325.206" r="4.2" fill="#2563eb" fill-opacity="0.72" stroke="#ffffff" stroke-width="0.6"/>
<circle cx="663.161" cy="490.607" r="4.2" fill="#2563eb" fill-opacity="0.72" stroke="#ffffff" stroke-width="0.6"/>
<circle cx="602.383" cy="418.726" r="4.2" fill="#2563eb" fill-opacity="0.72" stroke="#ffffff" stroke-width="0.6"/>
<circle cx="539.877" cy="408.727" r="4.2" fill="#2563eb" fill-opacity="0.72" stroke="#ffffff" stroke-width="0.6"/>
<circle cx="594.712" cy="346.475" r="4.2" fill="#dc2626" fill-opacity="0.72" stroke="#ffffff" stroke-width="0.6"/>
<circle cx="864.231" cy="351.707" r="4.2" fill="#f59e0b" fill-opacity="0.72" stroke="#ffffff" stroke-width="0.6"/>
<circle cx="782.435" cy="335.011" r="4.2" fill="#f59e0b" fill-opacity="0.72" stroke="#ffffff" stroke-width="0.6"/>
<circle cx="407.011" cy="368.660" r="4.2" fill="#dc2626" fill-opacity="0.72" stroke="#ffffff" stroke-width="0.6"/>
<circle cx="374.311" cy="304.632" r="4.2" fill="#dc2626" fill-opacity="0.72" stroke="#ffffff" stroke-width="0.6"/>
<circle cx="782.023" cy="352.119" r="4.2" fill="#dc2626" fill-opacity="0.72" stroke="#ffffff" stroke-width="0.6"/>
<circle cx="553.085" cy="224.544" r="4.2" fill="#f59e0b" fill-opacity="0.72" stroke="#ffffff" stroke-width="0.6"/>
<circle cx="539.507" cy="499.038" r="4.2" fill="#dc2626" fill-opacity="0.72" stroke="#ffffff" stroke-width="0.6"/>
<circle cx="640.113" cy="265.540" r="4.2" fill="#2563eb" fill-opacity="0.72" stroke="#ffffff" stroke-width="0.6"/>
<circle cx="330.292" cy="341.894" r="4.2" fill="#f59e0b" fill-opacity="0.72" stroke="#ffffff" stroke-width="0.6"/>
<circle cx="442.575" cy="378.232" r="4.2" fill="#dc2626" fill-opacity="0.72" stroke="#ffffff" stroke-width="0.6"/>
<circle cx="568.027" cy="459.536" r="4.2" fill="#dc2626" fill-opacity="0.72" stroke="#ffffff" stroke-width="0.6"/>
<circle cx="370.524" cy="327.022" r="4.2" fill="#2563eb" fill-opacity="0.72" stroke="#ffffff" stroke-width="0.6"/>
<circle cx="679.457" cy="320.849" r="4.2" fill="#dc2626" fill-opacity="0.72" stroke="#ffffff" stroke-width="0.6"/>
<circle cx="918.861" cy="441.015" r="4.2" fill="#f59e0b" fill-opacity="0.72" stroke="#ffffff" stroke-width="0.6"/>
<circle cx="556.146" cy="248.345" r="4.2" fill="#2563eb" fill-opacity="0.72" stroke="#ffffff" stroke-width="0.6"/>
<circle cx="387.443" cy="467.428" r="4.2" fill="#2563eb" fill-opacity="0.72" stroke="#ffffff" stroke-width="0.6"/>
<circle cx="582.497" cy="267.189" r="4.2" fill="#dc2626" fill-opacity="0.72" stroke="#ffffff" stroke-width="0.6"/>
<circle cx="473.678" cy="352.401" r="4.2" fill="#dc2626" fill-opacity="0.72" stroke="#ffffff" stroke-width="0.6"/>
<circle cx="629.748" cy="316.802" r="4.2" fill="#2563eb" fill-opacity="0.72" stroke="#ffffff" stroke-width="0.6"/>
<circle cx="575.403" cy="212.940" r="4.2" fill="#dc2626" fill-opacity="0.72" stroke="#ffffff" stroke-width="0.6"/>
<circle cx="673.298" cy="334.708" r="4.2" fill="#dc2626" fill-opacity="0.72" stroke="#ffffff" stroke-width="0.6"/>
<circle cx="657.505" cy="182.361" r="4.2" fill="#dc2626" fill-opacity="0.72" stroke="#ffffff" stroke-width="0.6"/>
<circle cx="845.188" cy="329.202" r="4.2" fill="#2563eb" fill-opacity="0.72" stroke="#ffffff" stroke-width="0.6"/>
<circle cx="920.240" cy="338.002" r="4.2" fill="#dc2626" fill-opacity="0.72" stroke="#ffffff" stroke-width="0.6"/>
<circle cx="549.314" cy="173.759" r="4.2" fill="#dc2626" fill-opacity="0.72" stroke="#ffffff" stroke-width="0.6"/>
<circle cx="886.074" cy="329.060" r="4.2" fill="#dc2626" fill-opacity="0.72" stroke="#ffffff" stroke-width="0.6"/>
<circle cx="531.111" cy="279.666" r="4.2" fill="#dc2626" fill-opacity="0.72" stroke="#ffffff" stroke-width="0.6"/>
<circle cx="570.282" cy="336.503" r="4.2" fill="#dc2626" fill-opacity="0.72" stroke="#ffffff" stroke-width="0.6"/>
<circle cx="561.542" cy="197.738" r="4.2" fill="#dc2626" fill-opacity="0.72" stroke="#ffffff" stroke-width="0.6"/>
<circle cx="673.724" cy="301.473" r="4.2" fill="#2563eb" fill-opacity="0.72" stroke="#ffffff" stroke-width="0.6"/>
<circle cx="541.394" cy="188.603" r="4.2" fill="#dc2626" fill-opacity="0.72" stroke="#ffffff" stroke-width="0.6"/>
<circle cx="510.469" cy="300.682" r="4.2" fill="#dc2626" fill-opacity="0.72" stroke="#ffffff" stroke-width="0.6"/>
<circle cx="574.615" cy="189.643" r="4.2" fill="#dc2626" fill-opacity="0.72" stroke="#ffffff" stroke-width="0.6"/>
<circle cx="583.302" cy="358.592" r="4.2" fill="#f59e0b" fill-opacity="0.72" stroke="#ffffff" stroke-width="0.6"/>
<circle cx="634.861" cy="415.162" r="4.2" fill="#2563eb" fill-opacity="0.72" stroke="#ffffff" stroke-width="0.6"/>
<circle cx="587.064" cy="279.852" r="4.2" fill="#2563eb" fill-opacity="0.72" stroke="#ffffff" stroke-width="0.6"/>
<circle cx="510.000" cy="409.933" r="4.2" fill="#dc2626" fill-opacity="0.72" stroke="#ffffff" stroke-width="0.6"/>
<circle cx="499.804" cy="200.140" r="4.2" fill="#f59e0b" fill-opacity="0.72" stroke="#ffffff" stroke-width="0.6"/>
<circle cx="563.843" cy="548.584" r="4.2" fill="#dc2626" fill-opacity="0.72" stroke="#ffffff" stroke-width="0.6"/>
<circle cx="220.850" cy="395.386" r="4.2" fill="#2563eb" fill-opacity="0.72" stroke="#ffffff" stroke-width="0.6"/>
<circle cx="575.737" cy="428.340" r="4.2" fill="#f59e0b" fill-opacity="0.72" stroke="#ffffff" stroke-width="0.6"/>
<circle cx="381.313" cy="343.992" r="4.2" fill="#2563eb" fill-opacity="0.72" stroke="#ffffff" stroke-width="0.6"/>
<circle cx="589.174" cy="161.300" r="4.2" fill="#2563eb" fill-opacity="0.72" stroke="#ffffff" stroke-width="0.6"/>
<circle cx="710.253" cy="293.245" r="4.2" fill="#dc2626" fill-opacity="0.72" stroke="#ffffff" stroke-width="0.6"/>
<circle cx="547.305" cy="481.880" r="4.2" fill="#dc2626" fill-opacity="0.72" stroke="#ffffff" stroke-width="0.6"/>
<circle cx="454.881" cy="352.233" r="4.2" fill="#dc2626" fill-opacity="0.72" stroke="#ffffff" stroke-width="0.6"/>
<circle cx="464.156" cy="318.353" r="4.2" fill="#f59e0b" fill-opacity="0.72" stroke="#ffffff" stroke-width="0.6"/>
<circle cx="720.500" cy="420.056" r="4.2" fill="#dc2626" fill-opacity="0.72" stroke="#ffffff" stroke-width="0.6"/>
<circle cx="545.764" cy="329.266" r="4.2" fill="#dc2626" fill-opacity="0.72" stroke="#ffffff" stroke-width="0.6"/>
<circle cx="674.623" cy="314.755" r="4.2" fill="#dc2626" fill-opacity="0.72" stroke="#ffffff" stroke-width="0.6"/>
<circle cx="547.708" cy="328.763" r="4.2" fill="#2563eb" fill-opacity="0.72" stroke="#ffffff" stroke-width="0.6"/>
<text x="515" y="775" text-anchor="middle" font-family="Arial, sans-serif" font-size="15" fill="#374151">t-SNE 1</text>
<text x="25" y="402.5" text-anchor="middle" transform="rotate(-90 25 402.5)" font-family="Arial, sans-serif" font-size="15" fill="#374151">t-SNE 2</text>
<text x="975" y="105" font-family="Arial, sans-serif" font-size="17" font-weight="bold" fill="#111827">Estados</text>
<circle cx="975" cy="137" r="6" fill="#f59e0b"/>
<text x="991" y="142" font-family="Arial, sans-serif" font-size="14" fill="#374151">GRAB (57)</text>
<circle cx="975" cy="167" r="6" fill="#2563eb"/>
<text x="991" y="172" font-family="Arial, sans-serif" font-size="14" fill="#374151">RUN (97)</text>
<circle cx="975" cy="197" r="6" fill="#dc2626"/>
<text x="991" y="202" font-family="Arial, sans-serif" font-size="14" fill="#374151">SWEEP (134)</text>
<text x="975" y="252" font-family="Arial, sans-serif" font-size="12" fill="#6b7280">Uso exploratorio:</text>
<text x="975" y="270" font-family="Arial, sans-serif" font-size="12" fill="#6b7280">no reemplaza las features</text>
<text x="975" y="286" font-family="Arial, sans-serif" font-size="12" fill="#6b7280">originales para GMM/HMM.</text>
</svg>
